<svg height="511pt" viewBox="-15 1 511 511.99963" width="511pt" xmlns="http://www.w3.org/2000/svg"><path d="m107.25 272.074219c-8.285156 0-15 6.714843-15 15v89.96875c0 8.285156 6.714844 15 15 15s15-6.714844 15-15v-89.96875c0-8.285157-6.714844-15-15-15zm0 0"/><path d="m167.25 301.0625c-8.285156 0-15 6.714844-15 15v60.980469c0 8.285156 6.714844 15 15 15s15-6.714844 15-15v-60.980469c0-8.285156-6.714844-15-15-15zm0 0"/><path d="m227.25 272.074219c-8.285156 0-15 6.714843-15 15v89.96875c0 8.285156 6.714844 15 15 15s15-6.714844 15-15v-89.96875c0-8.285157-6.714844-15-15-15zm0 0"/><path d="m287.25 272.074219c-8.285156 0-15 6.714843-15 15v89.96875c0 8.285156 6.714844 15 15 15s15-6.714844 15-15v-89.96875c0-8.285157-6.714844-15-15-15zm0 0"/><path d="m427.25 152.113281h-45.890625c6.269531-11.738281 9.648437-24.96875 9.648437-38.730469 0-61.316406-65.128906-101.203124-119.828124-73.136718-35.765626-53.660156-115.082032-53.660156-150.84375 0-54.789063-28.105469-119.835938 11.910156-119.835938 73.136718 0 25.605469 11.75 49.371094 31.75 64.910157v278.71875c0 30.320312 24.671875 54.988281 55 54.988281h220c30.328125 0 55-24.667969 55-54.988281v-94.960938h65c30.328125 0 55-24.664062 55-54.984375v-99.964844c0-30.320312-24.671875-54.988281-55-54.988281zm-311.054688-78.855469c7.78125 6.484376 19.609376 3.53125 23.464844-5.789062 20.644532-49.882812 91.539063-49.921875 112.199219 0 3.867187 9.347656 15.707031 12.257812 23.46875 5.78125 33.714844-28.121094 85.683594-4.207031 85.683594 40.132812 0 14.898438-6.234375 28.824219-17.203125 38.730469h-147.558594c-8.285156 0-15 6.71875-15 15.003907v58.976562c0 8.265625-6.730469 14.988281-15 14.988281s-15-6.722656-15-14.988281v-58.976562c0-8.285157-6.714844-15.003907-15-15.003907h-88.53125c-10.894531-9.828125-17.21875-23.78125-17.21875-38.730469 0-44.230468 51.851562-68.332031 85.695312-40.125zm5.054688 138.835938h-59v-29.976562h59zm-59 30h61.949219c14.734375 38.574219 69.375 38.546875 84.097656 0h123.953125v179.925781h-270zm270-30h-121v-29.976562h121zm0 244.917969c0 13.777343-11.214844 24.984375-25 24.984375h-220c-13.785156 0-25-11.207032-25-24.984375v-4.992188h270zm120-149.945313c0 13.777344-11.214844 24.984375-25 24.984375h-65v-149.933593h65c13.785156 0 25 11.207031 25 24.984374zm0 0"/></svg>