<svg id="Capa_1" enable-background="new 0 0 512.014 512.014" height="512" viewBox="0 0 512.014 512.014" width="512" xmlns="http://www.w3.org/2000/svg"><path id="XMLID_2268_" d="m295.369 168.439 12.96 48.365c.526 1.964 2.06 3.498 4.025 4.025 1.964.526 4.06-.035 5.498-1.473l35.406-35.406 38.476-16.759 5.274 27.504-16.628 19.351c-20.133 23.43-34.736 51.089-42.728 80.929l-19.996 74.664c-2.533 9.453-12.25 15.063-21.703 12.53l-50.034-13.407c-9.453-2.533-15.063-12.25-12.53-21.703l19.568-73.066c8.266-30.864 9.236-63.227 2.833-94.531l-4.681-22.883 19.32-21.892z" fill="#d8ec84"/><path id="XMLID_1337_" d="m464.103 151.402c-1.218-.326-2.437-.551-3.656-.785 8.465-6.596 14.965-15.856 17.957-27.02 7.306-27.267-8.875-55.295-36.143-62.601-9.636-2.582-19.348-2.18-28.226.557-4.273-23.128-21.39-42.911-45.621-49.403-24.231-6.493-48.945 2.081-64.21 19.974-6.32-6.809-14.53-12.013-24.166-14.595-27.267-7.306-55.295 8.876-62.601 36.143-2.992 11.165-1.992 22.434 2.04 32.378-1.172-.407-2.34-.822-3.558-1.149-27.267-7.306-55.295 8.875-62.601 36.143-7.306 27.267 8.875 55.295 36.143 62.601 5.755 1.542 11.534 1.981 17.155 1.547 6.578 8.284 15.729 14.641 26.731 17.589 21.309 5.71 43.035-2.965 55.02-20.025 6.162 10.233 16.113 18.202 28.562 21.538s25.051 1.409 35.504-4.372c1.85 20.767 16.328 39.142 37.636 44.852 11.002 2.948 22.106 2.018 31.944-1.867 4.651 3.187 9.875 5.696 15.63 7.238 27.267 7.306 55.295-8.876 62.601-36.143 7.308-27.266-8.873-55.293-36.141-62.6z" fill="#cbe558"/><path id="XMLID_1087_" d="m112.922 238.773-85.953-45.546c-10.631-5.634-17.19-16.768-16.963-28.798.332-17.62 14.886-31.635 32.506-31.302 12.03.227 22.909 7.201 28.138 18.037z" fill="#d8ec84"/><path id="XMLID_1085_" d="m108.731 239.896 51.664-82.421c6.39-10.195 6.503-23.117.292-33.421-9.098-15.093-28.709-19.954-43.802-10.856-10.304 6.211-16.239 17.691-15.349 29.689z" fill="#d8ec84"/><path id="XMLID_1083_" d="m110.269 235.854-53.209-81.431c-6.581-10.072-6.938-22.99-.922-33.41 8.812-15.262 28.327-20.492 43.59-11.68 10.42 6.016 16.57 17.381 15.906 29.395z" fill="#e2f1a1"/><path id="XMLID_1266_" d="m181.369 501.056c-12.563 3.366-25.757-2.596-31.532-14.25l-94.636-190.976c-15.579-31.439 1.518-69.27 35.41-78.352l27.569-7.387c33.892-9.081 67.614 15.133 69.842 50.15l13.531 212.708c.824 12.98-7.62 24.741-20.184 28.107z" fill="#ff9d6c"/><path id="XMLID_1116_" d="m503.8 170.218c-6.024-10.435-14.782-18.677-25.296-23.977 4.365-5.987 7.601-12.745 9.559-20.055 4.225-15.768 2.057-32.237-6.105-46.375-8.162-14.137-21.341-24.25-37.108-28.474-7.704-2.064-15.699-2.581-23.567-1.559-7.726-22.897-26.592-40.941-50.279-47.288-23.689-6.348-49.048-.153-67.188 15.813-6.302-4.818-13.486-8.369-21.188-10.433-15.767-4.225-32.237-2.057-46.375 6.105-14.137 8.162-24.249 21.341-28.474 37.108-1.958 7.309-2.536 14.779-1.75 22.145-22.416-1.288-43.765 9.885-55.466 29.109-12.122-5.44-26.626-5.066-38.842 2.297-.25.151-.487.322-.734.478-1.929-1.641-4.009-3.14-6.26-4.44-20.014-11.555-45.695-4.672-57.25 15.341-1.34 2.321-2.42 4.733-3.283 7.196-.498-.027-.995-.071-1.494-.08-11.186-.223-21.797 3.949-29.861 11.714s-12.621 18.205-12.832 29.398c-.299 15.89 8.238 30.382 22.279 37.822l38.682 20.498c-6.575 5.96-11.961 13.257-15.728 21.591-8.127 17.982-7.763 38.437.999 56.119l32.072 64.72c2.452 4.949 8.451 6.975 13.4 4.52 4.949-2.452 6.973-8.452 4.521-13.4l-9.786-19.749 37.217-9.972c5.334-1.429 8.5-6.913 7.071-12.248-1.43-5.334-6.913-8.502-12.248-7.071l-41.098 11.012-13.227-26.693c-6.09-12.289-6.343-26.504-.695-39.002s16.485-21.701 29.732-25.25l27.569-7.387c13.247-3.55 27.234-.997 38.374 7.002 6.244 4.483 11.15 10.362 14.412 17.072l-42.865 11.486c-5.334 1.429-8.5 6.913-7.071 12.248 1.197 4.468 5.237 7.414 9.653 7.414.856 0 1.728-.111 2.595-.343l42.33-11.343 5.469 85.978-25.938 6.95c-5.334 1.429-8.5 6.913-7.071 12.248 1.197 4.468 5.237 7.414 9.653 7.414.856 0 1.728-.111 2.595-.343l22.056-5.91 1.966 30.91-16.164 4.331c-5.334 1.429-8.5 6.913-7.071 12.248 1.197 4.468 5.237 7.414 9.653 7.414.856 0 1.728-.111 2.595-.343l12.282-3.291 3.352 52.692c.521 8.196-4.857 15.688-12.79 17.813-7.932 2.124-16.337-1.672-19.984-9.031l-22.6-45.607c-2.453-4.948-8.452-6.972-13.4-4.52s-6.973 8.452-4.52 13.4l22.6 45.607c6.396 12.909 19.582 20.735 33.488 20.734 3.183 0 6.407-.411 9.593-1.264 17.101-4.582 28.697-20.732 27.574-38.401l-13.53-212.708c-1.253-19.694-11.165-37.59-27.194-49.1-7.591-5.451-16.105-9.12-24.985-10.955l13.763-21.957c7.504 7.477 16.864 12.917 27.288 15.71 4.971 1.332 10.103 2.016 15.314 2.044 7.769 8.271 17.553 14.139 28.572 17.091 6.323 1.694 12.764 2.319 19.094 1.962.628 19.22-1.562 38.349-6.558 57.003l-19.567 73.065c-1.917 7.152-.933 14.623 2.769 21.035 3.702 6.413 9.68 11 16.832 12.916l50.035 13.407c2.394.642 4.799.948 7.167.948 12.238 0 23.468-8.18 26.783-20.55l19.996-74.664c4.864-18.162 12.267-35.406 22.033-51.393 5.464 3.677 11.566 6.505 18.138 8.266 11.019 2.952 22.426 2.763 33.289-.516 4.528 2.582 9.315 4.555 14.285 5.887 5.279 1.415 10.581 2.09 15.803 2.089 26.98-.001 51.738-18.032 59.045-45.303 4.225-15.769 2.057-32.239-6.105-46.375zm-351.678-41.001c4.289 7.115 4.212 15.908-.201 22.948l-29.333 46.796c-.09.014-.179.034-.269.049l3.299-59.73c.345-6.242-.703-12.309-2.917-17.867 10.257-5.721 23.314-2.329 29.421 7.804zm-87.324-3.204c4.054-7.021 11.434-10.951 19.012-10.951 3.714 0 7.477.944 10.917 2.931 7.195 4.154 11.38 11.888 10.922 20.183l-3.64 65.895-.479.128-36.1-55.247c-4.544-6.954-4.787-15.744-.632-22.939zm-33.147 58.377c-7.341-3.89-11.804-11.467-11.647-19.773.11-5.851 2.493-11.309 6.708-15.369 4.211-4.055 9.756-6.218 15.59-6.123.877 5.863 2.998 11.583 6.386 16.768l32.726 50.084c-.284.109-.565.222-.847.335zm296.34 107.998-4.914 18.35-9.577-2.566c-5.335-1.431-10.818 1.736-12.248 7.071s1.736 10.818 7.071 12.248l9.58 2.567-9.907 36.994c-1.102 4.112-5.344 6.562-9.456 5.459l-50.035-13.407c-1.992-.534-3.656-1.811-4.688-3.597-1.031-1.786-1.305-3.867-.771-5.86l3.387-12.645 18.071 4.842c.867.232 1.738.343 2.595.343 4.415 0 8.456-2.947 9.653-7.414 1.43-5.335-1.736-10.818-7.071-12.248l-18.074-4.843 11.008-41.102c.272-1.014.524-2.031.781-3.047l18.854 5.052c.867.232 1.738.343 2.595.343 4.415 0 8.456-2.947 9.653-7.414 1.43-5.335-1.736-10.818-7.071-12.248l-20.022-5.365c2.265-14.535 3.024-29.249 2.279-44 6.631-2.717 12.802-6.588 18.171-11.502 4.85 5.012 10.56 9.084 16.885 12.048l-5.172 19.304c-1.43 5.335 1.736 10.818 7.071 12.248.867.232 1.738.343 2.595.343 4.415 0 8.456-2.947 9.653-7.414l5.155-19.238c7.082.653 14.192-.014 21.017-1.962 2.108 6.674 5.339 12.885 9.483 18.393-11.893 18.628-20.82 38.869-26.551 60.267zm162.596-80.973c-2.842 10.607-9.646 19.474-19.156 24.964-9.511 5.491-20.59 6.948-31.198 4.107-4.422-1.185-8.65-3.146-12.566-5.829-2.74-1.877-6.235-2.271-9.325-1.051-8.282 3.271-17.163 3.791-25.683 1.509-16.575-4.441-28.738-18.941-30.265-36.08-.3-3.369-2.282-6.357-5.269-7.944-2.986-1.586-6.572-1.556-9.531.08-8.629 4.772-18.601 6.001-28.076 3.463-9.476-2.539-17.496-8.59-22.583-17.038-1.744-2.897-4.834-4.716-8.214-4.835-3.383-.136-6.59 1.477-8.534 4.245-9.893 14.08-27.676 20.556-44.25 16.115-8.521-2.284-15.952-7.176-21.488-14.148-2.066-2.602-5.287-4.013-8.602-3.752-4.733.364-9.375-.051-13.797-1.235-8.568-2.296-16.069-7.248-21.524-14.114 6.75-12.922 6.348-28.335-1.275-40.981-.86-1.426-1.799-2.774-2.796-4.06 8.877-16.67 28.143-25.29 46.877-20.27.76.203 1.632.507 2.556.828l.312.109c3.708 1.285 7.825.285 10.528-2.561 2.703-2.845 3.492-7.008 2.017-10.645-3.397-8.377-3.967-17.379-1.648-26.032 2.842-10.608 9.646-19.474 19.156-24.964 9.511-5.491 20.589-6.95 31.198-4.107 7.426 1.99 14.143 6.049 19.424 11.739 1.941 2.091 4.677 3.25 7.539 3.194 2.854-.06 5.546-1.336 7.398-3.507 13.194-15.465 34.396-22.063 54.015-16.805 19.619 5.257 34.682 21.57 38.375 41.561.519 2.807 2.212 5.258 4.653 6.737s5.397 1.843 8.126 1.002c7.418-2.287 15.265-2.443 22.691-.454 21.897 5.867 34.939 28.456 29.072 50.354-2.319 8.653-7.313 16.164-14.444 21.721-3.096 2.413-4.494 6.414-3.575 10.23s3.986 6.741 7.841 7.479l.299.057c.969.185 1.884.36 2.65.565 21.898 5.867 34.939 28.455 29.072 50.353z"/><path id="XMLID_1127_" d="m114.328 393.8c-1.87-1.86-4.44-2.93-7.08-2.93-2.63 0-5.2 1.07-7.07 2.93-1.86 1.86-2.93 4.44-2.93 7.07s1.07 5.21 2.93 7.07 4.44 2.93 7.07 2.93c2.64 0 5.21-1.07 7.08-2.93 1.86-1.86 2.92-4.44 2.92-7.07s-1.06-5.21-2.92-7.07z"/></svg>