<svg height="512pt" viewBox="0 -14 512 512" width="512pt" xmlns="http://www.w3.org/2000/svg"><path d="m255.988281 101.125c0-15.761719-12.550781-28.582031-27.980469-28.582031-15.425781 0-27.980468 12.820312-27.980468 28.582031 0 15.777344 12.550781 28.613281 27.980468 28.613281 15.429688 0 27.980469-12.835937 27.980469-28.613281zm-35.941406 0c0-4.722656 3.570313-8.566406 7.964844-8.566406 4.390625 0 7.960937 3.84375 7.960937 8.566406 0 4.738281-3.570312 8.59375-7.960937 8.59375-4.394531 0-7.964844-3.855469-7.964844-8.59375zm0 0"/><path d="m328.378906 158.492188c15.425782 0 27.976563-12.835938 27.976563-28.609376 0-15.761718-12.550781-28.585937-27.976563-28.585937-15.429687 0-27.980468 12.824219-27.980468 28.585937 0 15.773438 12.550781 28.609376 27.980468 28.609376zm0-37.179688c4.390625 0 7.960938 3.84375 7.960938 8.570312 0 4.738282-3.570313 8.59375-7.960938 8.59375s-7.964844-3.855468-7.964844-8.59375c.003907-4.726562 3.574219-8.570312 7.964844-8.570312zm0 0"/><path d="m417.402344 115.527344c-10.886719-31.867188-31.410156-60.375-58.355469-80.855469-29.839844-22.683594-65.480469-34.671875-103.0625-34.671875-20.320313 0-40.222656 3.546875-59.164063 10.546875-5.183593 1.914063-7.835937 7.671875-5.921874 12.855469 1.917968 5.183594 7.675781 7.832031 12.859374 5.917968 16.710938-6.171874 34.285157-9.304687 52.226563-9.304687 66.34375 0 125.722656 44.425781 144.398437 108.035156 1.246094 4.238281 5.125 7.164063 9.546876 7.1875 45.246093.25 82.054687 37.296875 82.054687 82.582031 0 45.554688-37.039063 82.613282-82.566406 82.613282-16.535157 0-32.457031-4.847656-46.042969-14.027344-3.671875-2.476562-8.535156-2.25-11.957031.566406-26.769531 22.011719-60.660157 34.132813-95.433594 34.132813-34.75 0-68.628906-12.121094-95.398437-34.132813-3.421876-2.8125-8.28125-3.042968-11.953126-.570312-13.617187 9.179687-29.539062 14.03125-46.046874 14.03125-45.53125 0-82.566407-37.058594-82.566407-82.613282 0-45.285156 36.808594-82.328124 82.054688-82.582031 4.421875-.023437 8.300781-2.949219 9.546875-7.191406 5.941406-20.25 15.9375-38.75 29.71875-54.988281 3.574218-4.210938 3.058594-10.527344-1.15625-14.105469-4.214844-3.574219-10.53125-3.058594-14.109375 1.15625-14.027344 16.53125-24.597657 35.144531-31.480469 55.417969-52.796875 4.082031-94.59375 48.511718-94.59375 102.292968 0 49.8125 35.660156 91.441407 82.777344 100.703126l20.054687 133.320312c2.746094 18.34375 16.105469 31.15625 32.488281 31.15625h55 .007813.015625 138.03125.011719.011719 55.027343c16.382813 0 29.742188-12.8125 32.484375-31.148438l20.3125-134.964843c43.605469-11.820313 75.777344-51.75 75.777344-99.066407 0-53.785156-41.800781-98.214843-94.597656-102.292968zm-282.082032 347.457031c-7.308593 0-11.640624-7.082031-12.691406-14.109375l-19.320312-128.429688s.003906-.003906.003906-.007812c17.773438-.125 34.984375-4.769531 50.242188-13.53125 5.136718 3.867188 10.484374 7.417969 16 10.660156l10.0625 145.417969zm114.03125 0h-49.671874l-9.34375-135.035156c18.640624 7.773437 38.640624 12.242187 59.015624 13.039062zm69.6875 0h-49.671874v-122.394531c20.597656-1.628906 40.691406-6.992188 59.253906-15.726563zm77.078126-14.101563c-1.050782 7.019532-5.382813 14.101563-12.691407 14.101563h-44.320312l10.386719-149.792969c3.042968-1.996094 6.03125-4.089844 8.949218-6.285156 15.445313 8.882812 32.921875 13.542969 50.972656 13.542969.964844 0 1.917969-.015625 2.875-.042969.257813-.007812.515626-.019531.777344-.027344.703125-.027344 1.40625-.054687 2.105469-.09375.097656-.007812.199219-.007812.296875-.015625zm0 0"/><path d="m133.222656 193.179688c0 15.757812 12.550782 28.582031 27.976563 28.582031 15.429687 0 27.980469-12.824219 27.980469-28.582031 0-15.777344-12.550782-28.613282-27.980469-28.613282-15.425781 0-27.976563 12.835938-27.976563 28.613282zm35.9375 0c0 4.722656-3.570312 8.5625-7.960937 8.5625s-7.960938-3.839844-7.960938-8.5625c0-4.742188 3.570313-8.597657 7.960938-8.597657s7.960937 3.855469 7.960937 8.597657zm0 0"/><path d="m273.019531 226.867188c0 15.777343 12.550781 28.613281 27.976563 28.613281 15.429687 0 27.980468-12.835938 27.980468-28.613281 0-15.761719-12.550781-28.582032-27.980468-28.582032-15.425782 0-27.976563 12.820313-27.976563 28.582032zm27.976563-8.566407c4.390625 0 7.964844 3.84375 7.964844 8.566407 0 4.738281-3.574219 8.59375-7.964844 8.59375s-7.960938-3.855469-7.960938-8.59375c0-4.722657 3.570313-8.566407 7.960938-8.566407zm0 0"/><path d="m162.125 50.757812c2.191406 0 4.398438-.71875 6.246094-2.195312l.140625-.113281c4.316406-3.453125 5.015625-9.75 1.5625-14.066407-3.453125-4.316406-9.75-5.015624-14.066407-1.5625l-.140624.113282c-4.316407 3.453125-5.015626 9.75-1.5625 14.066406 1.976562 2.472656 4.882812 3.757812 7.820312 3.757812zm0 0"/></svg>